<svg width="363" height="115" viewBox="0 0 363 115" fill="none" xmlns="http://www.w3.org/2000/svg">
<path d="M44.3157 0L52.7428 5.2669V14.7473L44.3157 20.0142L35.8887 14.7473V5.2669L44.3157 0Z" fill="#94E3FF"/>
<path d="M4.21353 31.5645L8.42705 34.1979V38.9381L4.21353 41.5716L0 38.9381V34.1979L4.21353 31.5645Z" fill="#94E3FF"/>
<path d="M4.21353 82.2026L8.42705 84.8361V89.5763L4.21353 92.2097L0 89.5763V84.8361L4.21353 82.2026Z" fill="#94E3FF"/>
<path d="M4.21353 65.291L8.42705 67.9245V72.6647L4.21353 75.2981L0 72.6647V67.9245L4.21353 65.291Z" fill="#94E3FF"/>
<path d="M4.21353 48.4761L8.42705 51.1095V55.8497L4.21353 58.4832L0 55.8497V51.1095L4.21353 48.4761Z" fill="#94E3FF"/>
<path d="M44.3157 25.271L52.7428 30.5379V40.0183L44.3157 45.2852L35.8887 40.0183V30.5379L44.3157 25.271Z" fill="#94E3FF"/>
<path d="M44.3157 48.4761L52.7428 53.743V63.2234L44.3157 68.4903L35.8887 63.2234V53.743L44.3157 48.4761Z" fill="#94E3FF"/>
<path d="M44.3157 94.79L52.7428 100.057V109.537L44.3157 114.804L35.8887 109.537V100.057L44.3157 94.79Z" fill="#94E3FF"/>
<path d="M44.3157 71.5903L52.7428 76.8572V86.3377L44.3157 91.6046L35.8887 86.3377V76.8572L44.3157 71.5903Z" fill="#94E3FF"/>
<path d="M23.0761 86.3398L29.3964 90.29V97.4003L23.0761 101.351L16.7559 97.4003V90.29L23.0761 86.3398Z" fill="#94E3FF"/>
<path d="M23.0761 63.2251L29.3964 67.1753V74.2856L23.0761 78.2358L16.7559 74.2856V67.1753L23.0761 63.2251Z" fill="#94E3FF"/>
<path d="M23.0761 40.02L29.3964 43.9702V51.0805L23.0761 55.0307L16.7559 51.0805V43.9702L23.0761 40.02Z" fill="#94E3FF"/>
<path d="M24.1093 14.7495L30.4296 18.6997V25.81L24.1093 29.7602L17.7891 25.81V18.6997L24.1093 14.7495Z" fill="#94E3FF"/>
<path d="M84.1995 46.3535L92.6266 51.6204V61.1008L84.1995 66.3677L75.7725 61.1008V51.6204L84.1995 46.3535Z" fill="#2BB1E0"/>
<path d="M65.223 61.103L73.65 66.3699V75.8503L65.223 81.1172L56.7959 75.8503V66.3699L65.223 61.103Z" fill="#2BB1E0"/>
<path d="M65.223 84.2173L73.65 89.4842V98.9646L65.223 104.232L56.7959 98.9646V89.4842L65.223 84.2173Z" fill="#2BB1E0"/>
<path d="M65.223 35.832L73.65 41.0989V50.5794L65.223 55.8463L56.7959 50.5794V41.0989L65.223 35.832Z" fill="#2BB1E0"/>
<path d="M86.2659 71.6245L94.693 76.8914V86.3718L86.2659 91.6387L77.8389 86.3718V76.8914L86.2659 71.6245Z" fill="#2BB1E0"/>
<path d="M86.2659 23.1484L94.693 28.4153V37.8958L86.2659 43.1627L77.8389 37.8958V28.4153L86.2659 23.1484Z" fill="#2BB1E0"/>
<path d="M64.1897 12.627L72.6168 17.8939V27.3743L64.1897 32.6412L55.7627 27.3743V17.8939L64.1897 12.627Z" fill="#2BB1E0"/>
<path d="M123.215 40.724C126.693 40.724 129.732 41.429 132.333 42.839C134.965 44.249 136.986 46.2073 138.396 48.714C139.806 51.2207 140.511 54.072 140.511 57.268C140.511 60.4327 139.806 63.284 138.396 65.822C136.986 68.36 134.965 70.3653 132.333 71.838C129.732 73.2793 126.693 74 123.215 74H109.35V40.724H123.215ZM122.275 64.694C124.625 64.694 126.489 64.0517 127.868 62.767C129.247 61.4823 129.936 59.6493 129.936 57.268C129.936 54.8867 129.247 53.0537 127.868 51.769C126.489 50.4843 124.625 49.842 122.275 49.842H119.784V64.694H122.275ZM151.423 45.377C149.605 45.377 148.148 44.8913 147.052 43.92C145.955 42.9487 145.407 41.7267 145.407 40.254C145.407 38.75 145.955 37.5123 147.052 36.541C148.148 35.5383 149.605 35.037 151.423 35.037C153.209 35.037 154.65 35.5383 155.747 36.541C156.843 37.5123 157.392 38.75 157.392 40.254C157.392 41.7267 156.843 42.9487 155.747 43.92C154.65 44.8913 153.209 45.377 151.423 45.377ZM156.593 47.492V74H146.159V47.492H156.593ZM172.726 47.163C174.45 47.163 175.938 47.5233 177.191 48.244C178.445 48.9333 179.4 49.889 180.058 51.111V47.492H190.445V73.53C190.445 76.0053 189.991 78.2613 189.082 80.298C188.174 82.3347 186.701 83.964 184.664 85.186C182.659 86.408 180.074 87.019 176.909 87.019C172.648 87.019 169.264 86.0163 166.757 84.011C164.282 82.037 162.872 79.3423 162.527 75.927H172.773C173.055 77.3057 174.183 77.995 176.157 77.995C177.379 77.995 178.335 77.6817 179.024 77.055C179.714 76.4283 180.058 75.2533 180.058 73.53V70.381C179.4 71.603 178.445 72.5743 177.191 73.295C175.938 73.9843 174.45 74.329 172.726 74.329C170.658 74.329 168.794 73.7963 167.133 72.731C165.473 71.6343 164.157 70.0677 163.185 68.031C162.245 65.963 161.775 63.5347 161.775 60.746C161.775 57.9573 162.245 55.5447 163.185 53.508C164.157 51.44 165.473 49.8733 167.133 48.808C168.794 47.7113 170.658 47.163 172.726 47.163ZM180.058 60.746C180.058 59.336 179.698 58.2393 178.977 57.456C178.257 56.6727 177.332 56.281 176.204 56.281C175.076 56.281 174.152 56.6727 173.431 57.456C172.711 58.2393 172.35 59.336 172.35 60.746C172.35 62.156 172.711 63.2527 173.431 64.036C174.152 64.8193 175.076 65.211 176.204 65.211C177.332 65.211 178.257 64.8193 178.977 64.036C179.698 63.2527 180.058 62.156 180.058 60.746ZM202.275 45.377C200.457 45.377 199 44.8913 197.904 43.92C196.807 42.9487 196.259 41.7267 196.259 40.254C196.259 38.75 196.807 37.5123 197.904 36.541C199 35.5383 200.457 35.037 202.275 35.037C204.061 35.037 205.502 35.5383 206.599 36.541C207.695 37.5123 208.244 38.75 208.244 40.254C208.244 41.7267 207.695 42.9487 206.599 43.92C205.502 44.8913 204.061 45.377 202.275 45.377ZM207.445 47.492V74H197.011V47.492H207.445ZM230.534 65.117V74H226.586C219.317 74 215.682 70.381 215.682 63.143V56.187H212.392V47.492H215.682V41.1H226.116V47.492H230.44V56.187H226.116V63.331C226.116 63.9577 226.257 64.412 226.539 64.694C226.852 64.976 227.354 65.117 228.043 65.117H230.534ZM234.978 60.746C234.978 57.9573 235.448 55.5447 236.388 53.508C237.359 51.44 238.675 49.8733 240.336 48.808C241.996 47.7113 243.861 47.163 245.929 47.163C247.652 47.163 249.14 47.5233 250.394 48.244C251.647 48.9333 252.603 49.889 253.261 51.111V47.492H263.648V74H253.261V70.381C252.603 71.603 251.647 72.5743 250.394 73.295C249.14 73.9843 247.652 74.329 245.929 74.329C243.861 74.329 241.996 73.7963 240.336 72.731C238.675 71.6343 237.359 70.0677 236.388 68.031C235.448 65.963 234.978 63.5347 234.978 60.746ZM253.261 60.746C253.261 59.336 252.9 58.2393 252.18 57.456C251.459 56.6727 250.535 56.281 249.407 56.281C248.279 56.281 247.354 56.6727 246.634 57.456C245.913 58.2393 245.553 59.336 245.553 60.746C245.553 62.156 245.913 63.2527 246.634 64.036C247.354 64.8193 248.279 65.211 249.407 65.211C250.535 65.211 251.459 64.8193 252.18 64.036C252.9 63.2527 253.261 62.156 253.261 60.746ZM282.01 74.329C279.503 74.329 277.279 73.9217 275.336 73.107C273.425 72.2923 271.905 71.1643 270.777 69.723C269.649 68.2817 269.007 66.6523 268.85 64.835H278.861C278.986 65.6183 279.315 66.198 279.848 66.574C280.412 66.95 281.117 67.138 281.963 67.138C282.496 67.138 282.919 67.0283 283.232 66.809C283.545 66.5583 283.702 66.2607 283.702 65.916C283.702 65.3207 283.373 64.8977 282.715 64.647C282.057 64.3963 280.945 64.1143 279.378 63.801C277.467 63.425 275.884 63.0177 274.631 62.579C273.409 62.1403 272.328 61.3883 271.388 60.323C270.479 59.2577 270.025 57.785 270.025 55.905C270.025 54.2757 270.448 52.803 271.294 51.487C272.171 50.1397 273.456 49.09 275.148 48.338C276.84 47.5547 278.892 47.163 281.305 47.163C284.877 47.163 287.666 48.0403 289.671 49.795C291.708 51.5497 292.93 53.837 293.337 56.657H284.078C283.921 55.9363 283.592 55.388 283.091 55.012C282.59 54.6047 281.916 54.401 281.07 54.401C280.537 54.401 280.13 54.5107 279.848 54.73C279.566 54.918 279.425 55.2157 279.425 55.623C279.425 56.1557 279.754 56.563 280.412 56.845C281.07 57.0957 282.12 57.362 283.561 57.644C285.472 58.02 287.086 58.443 288.402 58.913C289.718 59.383 290.862 60.1977 291.833 61.357C292.804 62.485 293.29 64.0517 293.29 66.057C293.29 67.6237 292.836 69.0337 291.927 70.287C291.018 71.5403 289.702 72.5273 287.979 73.248C286.287 73.9687 284.297 74.329 282.01 74.329ZM324.973 60.511C324.973 61.2317 324.926 61.921 324.832 62.579H308.053C308.209 64.8663 309.165 66.01 310.92 66.01C312.048 66.01 312.862 65.493 313.364 64.459H324.409C324.033 66.339 323.234 68.031 322.012 69.535C320.821 71.0077 319.301 72.1827 317.453 73.06C315.635 73.906 313.63 74.329 311.437 74.329C308.805 74.329 306.455 73.7807 304.387 72.684C302.35 71.5873 300.752 70.0207 299.593 67.984C298.465 65.916 297.901 63.5033 297.901 60.746C297.901 57.9887 298.465 55.5917 299.593 53.555C300.752 51.487 302.35 49.9047 304.387 48.808C306.455 47.7113 308.805 47.163 311.437 47.163C314.069 47.163 316.403 47.7113 318.44 48.808C320.508 49.8733 322.106 51.4087 323.234 53.414C324.393 55.4193 324.973 57.785 324.973 60.511ZM314.398 58.02C314.398 57.1427 314.116 56.4847 313.552 56.046C312.988 55.576 312.283 55.341 311.437 55.341C309.588 55.341 308.507 56.234 308.194 58.02H314.398ZM348.718 47.304C351.757 47.304 354.123 48.3223 355.815 50.359C357.538 52.3957 358.4 55.153 358.4 58.631V74H348.013V59.947C348.013 58.6937 347.668 57.7067 346.979 56.986C346.321 56.234 345.428 55.858 344.3 55.858C343.14 55.858 342.232 56.234 341.574 56.986C340.916 57.7067 340.587 58.6937 340.587 59.947V74H330.153V47.492H340.587V51.534C341.401 50.2807 342.482 49.2623 343.83 48.479C345.208 47.6957 346.838 47.304 348.718 47.304Z" fill="white"/>
</svg>
