<svg width="200" height="200" viewBox="0 0 200 200" fill="none" xmlns="http://www.w3.org/2000/svg">
<g clip-path="url(#clip0_3102_942)">
<path fill-rule="evenodd" clip-rule="evenodd" d="M23.5625 6.38689C25.7497 4.203 28.376 2.50887 31.2675 1.41677C34.1589 0.324666 37.2495 -0.140472 40.3343 0.0521808C43.4191 0.244833 46.4277 1.09088 49.1608 2.53424C51.8939 3.97761 54.2891 5.98535 56.1875 8.42439L78.625 37.2494C82.7375 42.5369 84.1875 49.4244 82.5625 55.9244L75.725 83.2994C75.3715 84.7173 75.3906 86.2025 75.7805 87.6108C76.1703 89.0191 76.9177 90.3027 77.95 91.3369L108.663 122.049C109.698 123.084 110.984 123.832 112.394 124.222C113.805 124.612 115.293 124.63 116.713 124.274L144.075 117.437C147.283 116.635 150.631 116.573 153.866 117.255C157.101 117.937 160.139 119.346 162.75 121.374L191.575 143.799C201.938 151.862 202.888 167.174 193.613 176.437L180.688 189.362C171.438 198.612 157.613 202.674 144.725 198.137C111.74 186.531 81.7909 167.647 57.1 142.887C32.3411 118.2 13.4576 88.2551 1.85003 55.2744C-2.67497 42.3994 1.38753 28.5619 10.6375 19.3119L23.5625 6.38689Z" fill="white"/>
</g>
<defs>
<clipPath id="clip0_3102_942">
<rect width="200" height="200" fill="white"/>
</clipPath>
</defs>
</svg>
