<svg width="201" height="200" viewBox="0 0 201 200" fill="none" xmlns="http://www.w3.org/2000/svg">
<path d="M149.987 150.338C143.628 156.563 146.324 172.071 150.112 186.004L160.091 179.413C160.216 172.8 160.037 166.909 163.303 163.888C178.207 149.236 187.518 129.833 189.624 109.04C191.73 88.2465 186.499 67.3711 174.837 50.0279C163.174 32.6847 145.814 19.9655 125.763 14.0723C105.711 8.17911 84.2297 9.48297 65.038 17.7581C45.8463 26.0333 30.1523 40.7588 20.6731 59.3853C11.1939 78.0117 8.5262 99.3665 13.1319 119.752C17.7377 140.138 29.3269 158.272 45.8931 171.014C62.4593 183.756 82.9596 190.305 103.845 189.525C106.176 189.748 108.437 190.447 110.487 191.58C112.537 192.712 114.332 194.254 115.762 196.109L127.366 193.171C119.62 180.984 114.012 169.938 103.132 170.534C86.6784 171.144 70.5288 165.983 57.4793 155.942C44.4298 145.901 35.302 131.613 31.676 115.552C28.0501 99.4913 30.1542 82.6679 37.6242 67.9946C45.0942 53.3213 57.4598 41.7219 72.5803 35.2045C87.7008 28.687 104.624 27.6618 120.421 32.3063C136.218 36.9508 149.893 46.9726 159.08 60.6368C168.266 74.301 172.386 90.7474 170.725 107.129C169.065 123.51 161.728 138.795 149.987 150.338Z" stroke="black" stroke-width="5" stroke-linecap="round" stroke-linejoin="round"/>
<path d="M71.1621 109.313C76.3053 109.313 80.4746 105.143 80.4746 100C80.4746 94.8569 76.3053 90.6875 71.1621 90.6875C66.019 90.6875 61.8496 94.8569 61.8496 100C61.8496 105.143 66.019 109.313 71.1621 109.313Z" stroke="black" stroke-width="3" stroke-linecap="round" stroke-linejoin="round"/>
<path d="M100.033 109.313C105.176 109.313 109.346 105.143 109.346 100C109.346 94.8569 105.176 90.6875 100.033 90.6875C94.8901 90.6875 90.7207 94.8569 90.7207 100C90.7207 105.143 94.8901 109.313 100.033 109.313Z" stroke="black" stroke-width="3" stroke-linecap="round" stroke-linejoin="round"/>
<path d="M129.838 109.313C134.981 109.313 139.15 105.143 139.15 100C139.15 94.8569 134.981 90.6875 129.838 90.6875C124.695 90.6875 120.525 94.8569 120.525 100C120.525 105.143 124.695 109.313 129.838 109.313Z" stroke="black" stroke-width="3" stroke-linecap="round" stroke-linejoin="round"/>
</svg>
