<svg width="141" height="174" viewBox="0 0 141 174" fill="none" xmlns="http://www.w3.org/2000/svg">
<path d="M4 116.219V161.938C4 164.142 4.87578 166.256 6.43468 167.815C7.99357 169.374 10.1079 170.25 12.3125 170.25H128.688C130.892 170.25 133.006 169.374 134.565 167.815C136.124 166.256 137 164.142 137 161.938V116.219" stroke="black" stroke-width="7" stroke-linecap="round" stroke-linejoin="round"/>
<path d="M128.688 45.5625H12.3125C10.1079 45.5625 7.99357 46.4383 6.43468 47.9972C4.87578 49.5561 4 51.6704 4 53.875V78.8125C4 81.0171 4.87578 83.1314 6.43468 84.6903C7.99357 86.2492 10.1079 87.125 12.3125 87.125H128.688C130.892 87.125 133.006 86.2492 134.565 84.6903C136.124 83.1314 137 81.0171 137 78.8125V53.875C137 51.6704 136.124 49.5561 134.565 47.9972C133.006 46.4383 130.892 45.5625 128.688 45.5625Z" stroke="black" stroke-width="7" stroke-linejoin="round"/>
<path d="M37.25 4V20.625M70.5 4V20.625M103.75 4V20.625M37.25 128.688H103.75" stroke="black" stroke-width="7" stroke-linecap="round" stroke-linejoin="round"/>
</svg>
