<svg width="200" height="200" viewBox="0 0 200 200" fill="none" xmlns="http://www.w3.org/2000/svg">
<path d="M141.667 29.1671C141.667 28.062 141.228 27.0022 140.446 26.2208C139.665 25.4394 138.605 25.0004 137.5 25.0004H116.667C106.176 24.4779 95.905 28.1287 88.0977 35.1553C80.2904 42.1818 75.5815 52.0129 75 62.5004V85.0004H54.1667C53.0616 85.0004 52.0018 85.4394 51.2204 86.2208C50.439 87.0022 50 88.062 50 89.1671V110.834C50 111.939 50.439 112.999 51.2204 113.78C52.0018 114.561 53.0616 115 54.1667 115H75V170.834C75 171.939 75.439 172.999 76.2204 173.78C77.0018 174.561 78.0616 175 79.1667 175H104.167C105.272 175 106.332 174.561 107.113 173.78C107.894 172.999 108.333 171.939 108.333 170.834V115H130.167C131.093 115.014 131.998 114.718 132.737 114.159C133.477 113.601 134.009 112.812 134.25 111.917L140.25 90.2504C140.416 89.6348 140.438 88.9893 140.315 88.3637C140.192 87.7381 139.927 87.149 139.541 86.6419C139.155 86.1347 138.657 85.723 138.086 85.4384C137.516 85.1539 136.888 85.004 136.25 85.0004H108.333V62.5004C108.541 60.4377 109.509 58.5264 111.05 57.1396C112.591 55.7527 114.594 54.9901 116.667 55.0004H137.5C138.605 55.0004 139.665 54.5615 140.446 53.7801C141.228 52.9987 141.667 51.9388 141.667 50.8338V29.1671Z" fill="white"/>
</svg>
