<svg width="140" height="180" viewBox="0 0 140 180" fill="none" xmlns="http://www.w3.org/2000/svg">
<path d="M35 110C33.6739 110 32.4021 109.473 31.4645 108.536C30.5268 107.598 30 106.326 30 105C30 103.674 30.5268 102.402 31.4645 101.464C32.4021 100.527 33.6739 100 35 100H105C106.326 100 107.598 100.527 108.536 101.464C109.473 102.402 110 103.674 110 105C110 106.326 109.473 107.598 108.536 108.536C107.598 109.473 106.326 110 105 110H35ZM35 140C33.6739 140 32.4021 139.473 31.4645 138.536C30.5268 137.598 30 136.326 30 135C30 133.674 30.5268 132.402 31.4645 131.464C32.4021 130.527 33.6739 130 35 130H105C106.326 130 107.598 130.527 108.536 131.464C109.473 132.402 110 133.674 110 135C110 136.326 109.473 137.598 108.536 138.536C107.598 139.473 106.326 140 105 140H35Z" fill="#008DD4"/>
<path fill-rule="evenodd" clip-rule="evenodd" d="M81.85 1.39742e-06H15C11.0218 1.39742e-06 7.20644 1.58035 4.3934 4.3934C1.58035 7.20645 0 11.0218 0 15V165C0 168.978 1.58035 172.794 4.3934 175.607C7.20644 178.42 11.0218 180 15 180H125C128.978 180 132.794 178.42 135.607 175.607C138.42 172.794 140 168.978 140 165V62.02C139.999 58.2647 138.59 54.6464 136.05 51.88L92.91 4.86C91.5041 3.32745 89.7949 2.104 87.8909 1.26735C85.9869 0.430688 83.9297 -0.000896262 81.85 1.39742e-06ZM10 15C10 13.6739 10.5268 12.4022 11.4645 11.4645C12.4021 10.5268 13.6739 10 15 10H81.85C82.5438 9.99924 83.2302 10.1429 83.8654 10.4218C84.5007 10.7007 85.071 11.1087 85.54 11.62L128.68 58.64C129.528 59.5616 129.999 60.7678 130 62.02V165C130 166.326 129.473 167.598 128.536 168.536C127.598 169.473 126.326 170 125 170H15C13.6739 170 12.4021 169.473 11.4645 168.536C10.5268 167.598 10 166.326 10 165V15Z" fill="#008DD4"/>
<path d="M80 60H135C136.326 60 137.598 60.5268 138.536 61.4645C139.473 62.4021 140 63.6739 140 65C140 66.3261 139.473 67.5979 138.536 68.5355C137.598 69.4732 136.326 70 135 70H75C73.6739 70 72.4021 69.4732 71.4645 68.5355C70.5268 67.5979 70 66.3261 70 65V5C70 3.67392 70.5268 2.40215 71.4645 1.46447C72.4021 0.526784 73.6739 0 75 0C76.3261 0 77.5979 0.526784 78.5355 1.46447C79.4732 2.40215 80 3.67392 80 5V60Z" fill="#008DD4"/>
</svg>
