<svg width="168" height="168" viewBox="0 0 168 168" fill="none" xmlns="http://www.w3.org/2000/svg">
<path d="M83.5827 133.999C86.4994 133.999 88.966 132.991 90.9827 130.974C92.9994 128.958 94.0049 126.494 93.9994 123.583C93.9994 120.666 92.9938 118.199 90.9827 116.183C88.9716 114.166 86.5049 113.16 83.5827 113.166C80.666 113.166 78.2021 114.174 76.191 116.191C74.1799 118.208 73.1716 120.672 73.166 123.583C73.166 126.499 74.1744 128.966 76.191 130.983C78.2077 132.999 80.6716 134.005 83.5827 133.999ZM76.0827 101.916H91.4994C91.4994 97.3327 92.0216 93.7216 93.066 91.0827C94.1105 88.4438 97.0605 84.8327 101.916 80.2494C105.527 76.6382 108.374 73.1994 110.458 69.9327C112.541 66.666 113.583 62.7438 113.583 58.166C113.583 50.3882 110.735 44.416 105.041 40.2494C99.3466 36.0827 92.6105 33.9994 84.8327 33.9994C76.916 33.9994 70.491 36.0827 65.5577 40.2494C60.6244 44.416 57.1882 49.416 55.2494 55.2494L68.9994 60.666C69.6938 58.166 71.2577 55.4577 73.691 52.541C76.1244 49.6244 79.8382 48.166 84.8327 48.166C89.2771 48.166 92.6105 49.3827 94.8327 51.816C97.0549 54.2493 98.166 56.9216 98.166 59.8327C98.166 62.6105 97.3327 65.216 95.666 67.6494C93.9994 70.0827 91.916 72.3382 89.416 74.416C83.3049 79.8327 79.5549 83.9299 78.166 86.7077C76.7771 89.4855 76.0827 94.5549 76.0827 101.916ZM83.9994 167.333C72.4716 167.333 61.6382 165.144 51.4994 160.766C41.3605 156.388 32.541 150.452 25.041 142.958C17.541 135.458 11.6049 126.638 7.23268 116.499C2.86046 106.36 0.671571 95.5271 0.666016 83.9994C0.666016 72.4716 2.85491 61.6382 7.23268 51.4994C11.6105 41.3605 17.5466 32.541 25.041 25.041C32.541 17.541 41.3605 11.6049 51.4994 7.23268C61.6382 2.86046 72.4716 0.671571 83.9994 0.666016C95.5271 0.666016 106.36 2.85491 116.499 7.23268C126.638 11.6105 135.458 17.5466 142.958 25.041C150.458 32.541 156.397 41.3605 160.774 51.4994C165.152 61.6382 167.338 72.4716 167.333 83.9994C167.333 95.5271 165.144 106.36 160.766 116.499C156.388 126.638 150.452 135.458 142.958 142.958C135.458 150.458 126.638 156.397 116.499 160.774C106.36 165.152 95.5271 167.338 83.9994 167.333ZM83.9994 150.666C102.61 150.666 118.374 144.208 131.291 131.291C144.208 118.374 150.666 102.61 150.666 83.9994C150.666 65.3882 144.208 49.6244 131.291 36.7077C118.374 23.791 102.61 17.3327 83.9994 17.3327C65.3882 17.3327 49.6244 23.791 36.7077 36.7077C23.791 49.6244 17.3327 65.3882 17.3327 83.9994C17.3327 102.61 23.791 118.374 36.7077 131.291C49.6244 144.208 65.3882 150.666 83.9994 150.666Z" fill="black"/>
</svg>
