<svg width="207" height="220" viewBox="0 0 207 220" fill="none" xmlns="http://www.w3.org/2000/svg">
<path d="M78.5 216H128.5M103.5 16V3.5M166 41L178.5 28.5M41 41L28.5 28.5M166 153.5L178.5 166M41 153.5L28.5 166M16 91H3.5M203.5 91H191M103.5 47.25C116.191 47.2422 128.512 51.5266 138.461 59.4068C148.409 67.2871 155.401 78.3001 158.299 90.6562C161.196 103.012 159.831 115.985 154.423 127.467C149.015 138.949 139.884 148.264 128.513 153.9L128.5 166C128.5 172.63 125.866 178.989 121.178 183.678C116.489 188.366 110.13 191 103.5 191C96.8696 191 90.5107 188.366 85.8223 183.678C81.1339 178.989 78.5 172.63 78.5 166V153.9C67.1295 148.265 57.9986 138.95 52.5908 127.47C47.1831 115.989 45.8163 103.018 48.7126 90.6623C51.6088 78.3069 58.5979 67.2939 68.5442 59.4127C78.4906 51.5314 90.8097 47.245 103.5 47.25Z" stroke="#008DD4" stroke-width="7" stroke-linecap="round" stroke-linejoin="round"/>
</svg>
