<svg width="200" height="200" viewBox="0 0 200 200" fill="none" xmlns="http://www.w3.org/2000/svg">
<path d="M165.625 31.25H34.375C28.5753 31.2562 23.0149 33.5629 18.9139 37.6639C14.8129 41.7649 12.5062 47.3253 12.5 53.125V146.875C12.5062 152.675 14.8129 158.235 18.9139 162.336C23.0149 166.437 28.5753 168.744 34.375 168.75H165.625C171.425 168.744 176.985 166.437 181.086 162.336C185.187 158.235 187.494 152.675 187.5 146.875V53.125C187.494 47.3253 185.187 41.7649 181.086 37.6639C176.985 33.5629 171.425 31.2562 165.625 31.25ZM160.086 67.4336L103.836 111.184C102.739 112.036 101.389 112.499 100 112.499C98.6107 112.499 97.2609 112.036 96.1641 111.184L39.9141 67.4336C39.2532 66.9345 38.6981 66.3091 38.281 65.5936C37.8639 64.8781 37.5932 64.0869 37.4846 63.2659C37.3759 62.4449 37.4315 61.6104 37.6482 60.8111C37.8648 60.0118 38.2381 59.2635 38.7465 58.6097C39.2548 57.9559 39.888 57.4096 40.6093 57.0027C41.3306 56.5957 42.1255 56.3362 42.948 56.2391C43.7704 56.142 44.604 56.2094 45.4002 56.4372C46.1964 56.6651 46.9394 57.0489 47.5859 57.5664L100 98.332L152.414 57.5664C153.725 56.5766 155.372 56.1426 157 56.358C158.629 56.5734 160.107 57.4211 161.115 58.7177C162.123 60.0142 162.58 61.6555 162.387 63.2866C162.195 64.9176 161.368 66.4073 160.086 67.4336Z" fill="white"/>
</svg>
