<svg width="176" height="200" viewBox="0 0 176 200" fill="none" xmlns="http://www.w3.org/2000/svg">
<path d="M54.7251 19.875C42.8199 23.156 30.9957 26.7237 19.2626 30.575C18.1912 30.9221 17.2388 31.563 16.5139 32.4249C15.7891 33.2868 15.3208 34.335 15.1626 35.45C8.23757 87.4125 24.2376 125.325 43.3251 150.3C51.4065 160.98 61.0427 170.389 71.9126 178.212C76.2376 181.262 80.0626 183.462 83.0751 184.875C84.5751 185.587 85.8001 186.062 86.7376 186.35C87.1476 186.494 87.5703 186.598 88.0001 186.662C88.4247 186.593 88.8429 186.489 89.2501 186.35C90.2001 186.062 91.4251 185.587 92.9251 184.875C95.9251 183.462 99.7626 181.25 104.088 178.212C114.957 170.388 124.593 160.98 132.675 150.3C151.763 125.338 167.763 87.4125 160.838 35.45C160.681 34.3345 160.213 33.2856 159.488 32.4235C158.763 31.5614 157.81 30.9208 156.738 30.575C148.6 27.9125 134.863 23.575 121.275 19.8875C107.4 16.125 94.6376 13.3375 88.0001 13.3375C81.3751 13.3375 68.6001 16.1125 54.7251 19.875ZM51.4001 7C64.9626 3.3125 79.3751 0 88.0001 0C96.6251 0 111.038 3.3125 124.6 7C138.475 10.75 152.463 15.1875 160.688 17.875C164.126 19.0106 167.175 21.0933 169.484 23.8838C171.792 26.6742 173.266 30.0592 173.738 33.65C181.188 89.6125 163.9 131.088 142.925 158.525C134.031 170.262 123.425 180.598 111.463 189.188C107.326 192.16 102.944 194.773 98.3626 197C94.8626 198.65 91.1001 200 88.0001 200C84.9001 200 81.1501 198.65 77.6376 197C73.0565 194.773 68.6739 192.16 64.5376 189.188C52.5754 180.598 41.9698 170.262 33.0751 158.525C12.1001 131.088 -5.18743 89.6125 2.26257 33.65C2.73366 30.0592 4.20811 26.6742 6.51653 23.8838C8.82495 21.0933 11.8737 19.0106 15.3126 17.875C27.2525 13.9601 39.2851 10.3341 51.4001 7Z" fill="white"/>
</svg>
