<svg width="200" height="200" viewBox="0 0 200 200" fill="none" xmlns="http://www.w3.org/2000/svg">
<path d="M187.167 50.0007C180.751 52.9173 173.834 54.834 166.667 55.7507C174.001 51.334 179.667 44.334 182.334 35.9173C175.417 40.084 167.751 43.0007 159.667 44.6673C153.084 37.5007 143.834 33.334 133.334 33.334C113.751 33.334 97.7506 49.334 97.7506 69.084C97.7506 71.9173 98.084 74.6673 98.6673 77.2507C69.0007 75.7507 42.584 61.5007 25.0007 39.9173C21.9173 45.1673 20.1673 51.334 20.1673 57.834C20.1673 70.2507 26.4173 81.2507 36.084 87.5007C30.1673 87.5007 24.6673 85.834 19.834 83.334V83.584C19.834 100.917 32.1673 115.417 48.5007 118.667C43.2567 120.102 37.7514 120.302 32.4173 119.251C34.6807 126.355 39.1135 132.571 45.0925 137.025C51.0715 141.479 58.296 143.948 65.7506 144.084C53.1142 154.088 37.4506 159.495 21.334 159.417C18.5007 159.417 15.6673 159.251 12.834 158.917C28.6673 169.084 47.5006 175.001 67.6673 175.001C133.334 175.001 169.417 120.501 169.417 73.2507C169.417 71.6673 169.417 70.1673 169.334 68.584C176.334 63.584 182.334 57.2507 187.167 50.0007Z" fill="white"/>
</svg>
