<svg width="200" height="200" viewBox="0 0 200 200" fill="none" xmlns="http://www.w3.org/2000/svg">
<path d="M83.3327 124.999L126.583 99.9993L83.3327 74.9993V124.999ZM179.666 59.7493C180.749 63.666 181.499 68.916 181.999 75.5827C182.583 82.2493 182.833 87.9993 182.833 92.9993L183.333 99.9993C183.333 118.249 181.999 131.666 179.666 140.249C177.583 147.749 172.749 152.583 165.249 154.666C161.333 155.749 154.166 156.499 143.166 156.999C132.333 157.583 122.416 157.833 113.249 157.833L99.9994 158.333C65.0827 158.333 43.3327 156.999 34.7494 154.666C27.2494 152.583 22.416 147.749 20.3327 140.249C19.2493 136.333 18.4993 131.083 17.9993 124.416C17.416 117.749 17.166 111.999 17.166 106.999L16.666 99.9993C16.666 81.7493 17.9993 68.3327 20.3327 59.7493C22.416 52.2493 27.2494 47.416 34.7494 45.3327C38.666 44.2493 45.8327 43.4993 56.8327 42.9993C67.666 42.416 77.5827 42.166 86.7494 42.166L99.9994 41.666C134.916 41.666 156.666 42.9993 165.249 45.3327C172.749 47.416 177.583 52.2493 179.666 59.7493Z" fill="white"/>
</svg>
